# xmcd CD database file
#
# Track frame offsets:
#	150
#	38155
#	64727
#	92010
#	132542
#	166270
#	203605
#	234755
#
# Disc length: 3652 seconds
#
# Revision: 0
# Processed by: cddbd v1.5.1PL0 Copyright (c) Steve Scherf et al.
# Submitted via: CDex 1.51
#
DISCID=600e4208
DTITLE=Tommy Cecil - Samba for Felix
DYEAR=1999
DGENRE=Jazz
TTITLE0=Samba for Felix
TTITLE1=Don't Get Around Much Anymore
TTITLE2=You're So Retro
TTITLE3=Cê
TTITLE4=Cavalier
TTITLE5=Heather On The Hill
TTITLE6=Perspective Changes
TTITLE7=Pastorale
EXTD=YEAR: 1999
EXTT0=
EXTT1=
EXTT2=
EXTT3=
EXTT4=
EXTT5=
EXTT6=
EXTT7=
PLAYORDER=
